<mxfile host="app.diagrams.net" agent="Mozilla/5.0 (Windows NT 10.0; Win64; x64) AppleWebKit/537.36 (KHTML, like Gecko) Chrome/138.0.0.0 Safari/537.36" version="28.0.5">
  <diagram name="Page-1" id="RGXBzviV_CvmuKjT5Cnx">
    <mxGraphModel dx="786" dy="451" grid="1" gridSize="10" guides="1" tooltips="1" connect="1" arrows="1" fold="1" page="1" pageScale="1" pageWidth="1169" pageHeight="827" math="0" shadow="0">
      <root>
        <mxCell id="0" />
        <mxCell id="1" parent="0" />
        <mxCell id="zL2H6TLlNWtKdWwjvxqM-1" value="Start" style="ellipse;whiteSpace=wrap;html=1;" vertex="1" parent="1">
          <mxGeometry x="300" y="50" width="120" height="50" as="geometry" />
        </mxCell>
        <mxCell id="zL2H6TLlNWtKdWwjvxqM-4" value="" style="edgeStyle=orthogonalEdgeStyle;rounded=0;orthogonalLoop=1;jettySize=auto;html=1;" edge="1" parent="1" source="zL2H6TLlNWtKdWwjvxqM-1" target="zL2H6TLlNWtKdWwjvxqM-3">
          <mxGeometry relative="1" as="geometry">
            <mxPoint x="360" y="170" as="targetPoint" />
            <mxPoint x="360" y="100" as="sourcePoint" />
          </mxGeometry>
        </mxCell>
        <mxCell id="zL2H6TLlNWtKdWwjvxqM-5" style="edgeStyle=orthogonalEdgeStyle;rounded=0;orthogonalLoop=1;jettySize=auto;html=1;exitX=0.5;exitY=1;exitDx=0;exitDy=0;" edge="1" parent="1" source="zL2H6TLlNWtKdWwjvxqM-3">
          <mxGeometry relative="1" as="geometry">
            <mxPoint x="360" y="190" as="targetPoint" />
          </mxGeometry>
        </mxCell>
        <mxCell id="zL2H6TLlNWtKdWwjvxqM-3" value="Next Step" style="rounded=0;whiteSpace=wrap;html=1;" vertex="1" parent="1">
          <mxGeometry x="315" y="130" width="90" height="30" as="geometry" />
        </mxCell>
        <mxCell id="zL2H6TLlNWtKdWwjvxqM-7" style="edgeStyle=orthogonalEdgeStyle;rounded=0;orthogonalLoop=1;jettySize=auto;html=1;exitX=0;exitY=0.5;exitDx=0;exitDy=0;" edge="1" parent="1" source="zL2H6TLlNWtKdWwjvxqM-6">
          <mxGeometry relative="1" as="geometry">
            <mxPoint x="240" y="230" as="targetPoint" />
          </mxGeometry>
        </mxCell>
        <mxCell id="zL2H6TLlNWtKdWwjvxqM-11" style="edgeStyle=orthogonalEdgeStyle;rounded=0;orthogonalLoop=1;jettySize=auto;html=1;exitX=1;exitY=0.5;exitDx=0;exitDy=0;" edge="1" parent="1" source="zL2H6TLlNWtKdWwjvxqM-6">
          <mxGeometry relative="1" as="geometry">
            <mxPoint x="490" y="230" as="targetPoint" />
          </mxGeometry>
        </mxCell>
        <mxCell id="zL2H6TLlNWtKdWwjvxqM-6" value="Reached&lt;br&gt;Goal?" style="rhombus;whiteSpace=wrap;html=1;" vertex="1" parent="1">
          <mxGeometry x="320" y="190" width="80" height="80" as="geometry" />
        </mxCell>
        <mxCell id="zL2H6TLlNWtKdWwjvxqM-21" style="edgeStyle=orthogonalEdgeStyle;rounded=0;orthogonalLoop=1;jettySize=auto;html=1;exitX=0.5;exitY=1;exitDx=0;exitDy=0;entryX=0;entryY=0.5;entryDx=0;entryDy=0;" edge="1" parent="1" source="zL2H6TLlNWtKdWwjvxqM-8" target="zL2H6TLlNWtKdWwjvxqM-19">
          <mxGeometry relative="1" as="geometry" />
        </mxCell>
        <mxCell id="zL2H6TLlNWtKdWwjvxqM-8" value="Reward += 10" style="rounded=0;whiteSpace=wrap;html=1;" vertex="1" parent="1">
          <mxGeometry x="150" y="210" width="90" height="40" as="geometry" />
        </mxCell>
        <mxCell id="zL2H6TLlNWtKdWwjvxqM-9" value="Yes" style="text;html=1;align=center;verticalAlign=middle;whiteSpace=wrap;rounded=0;" vertex="1" parent="1">
          <mxGeometry x="250" y="200" width="60" height="30" as="geometry" />
        </mxCell>
        <mxCell id="zL2H6TLlNWtKdWwjvxqM-14" style="edgeStyle=orthogonalEdgeStyle;rounded=0;orthogonalLoop=1;jettySize=auto;html=1;exitX=0.5;exitY=0;exitDx=0;exitDy=0;entryX=1;entryY=0.5;entryDx=0;entryDy=0;" edge="1" parent="1" source="zL2H6TLlNWtKdWwjvxqM-12" target="zL2H6TLlNWtKdWwjvxqM-3">
          <mxGeometry relative="1" as="geometry" />
        </mxCell>
        <mxCell id="zL2H6TLlNWtKdWwjvxqM-16" style="edgeStyle=orthogonalEdgeStyle;rounded=0;orthogonalLoop=1;jettySize=auto;html=1;exitX=0.5;exitY=1;exitDx=0;exitDy=0;" edge="1" parent="1" source="zL2H6TLlNWtKdWwjvxqM-12">
          <mxGeometry relative="1" as="geometry">
            <mxPoint x="530" y="320" as="targetPoint" />
          </mxGeometry>
        </mxCell>
        <mxCell id="zL2H6TLlNWtKdWwjvxqM-12" value="Got&amp;nbsp;&lt;div&gt;Defended?&lt;/div&gt;" style="rhombus;whiteSpace=wrap;html=1;" vertex="1" parent="1">
          <mxGeometry x="490" y="190" width="80" height="80" as="geometry" />
        </mxCell>
        <mxCell id="zL2H6TLlNWtKdWwjvxqM-13" value="No" style="text;html=1;align=center;verticalAlign=middle;whiteSpace=wrap;rounded=0;" vertex="1" parent="1">
          <mxGeometry x="405" y="200" width="60" height="30" as="geometry" />
        </mxCell>
        <mxCell id="zL2H6TLlNWtKdWwjvxqM-15" value="No" style="text;html=1;align=center;verticalAlign=middle;whiteSpace=wrap;rounded=0;rotation=-90;" vertex="1" parent="1">
          <mxGeometry x="510" y="150" width="60" height="30" as="geometry" />
        </mxCell>
        <mxCell id="zL2H6TLlNWtKdWwjvxqM-20" style="edgeStyle=orthogonalEdgeStyle;rounded=0;orthogonalLoop=1;jettySize=auto;html=1;exitX=0;exitY=0.5;exitDx=0;exitDy=0;entryX=1;entryY=0.5;entryDx=0;entryDy=0;" edge="1" parent="1" source="zL2H6TLlNWtKdWwjvxqM-17" target="zL2H6TLlNWtKdWwjvxqM-19">
          <mxGeometry relative="1" as="geometry" />
        </mxCell>
        <mxCell id="zL2H6TLlNWtKdWwjvxqM-17" value="Reward -= 10" style="rounded=0;whiteSpace=wrap;html=1;" vertex="1" parent="1">
          <mxGeometry x="485" y="320" width="90" height="40" as="geometry" />
        </mxCell>
        <mxCell id="zL2H6TLlNWtKdWwjvxqM-18" value="Yes" style="text;html=1;align=center;verticalAlign=middle;whiteSpace=wrap;rounded=0;rotation=-90;" vertex="1" parent="1">
          <mxGeometry x="510" y="280" width="60" height="30" as="geometry" />
        </mxCell>
        <mxCell id="zL2H6TLlNWtKdWwjvxqM-19" value="End" style="ellipse;whiteSpace=wrap;html=1;aspect=fixed;" vertex="1" parent="1">
          <mxGeometry x="340" y="320" width="40" height="40" as="geometry" />
        </mxCell>
      </root>
    </mxGraphModel>
  </diagram>
</mxfile>
